<svg width="46" height="42" viewBox="0 0 46 42" fill="none" xmlns="http://www.w3.org/2000/svg">
<path fill-rule="evenodd" clip-rule="evenodd" d="M40.6049 9.91179C41.0782 9.92437 41.5263 9.95048 41.9302 10.0046C42.8115 10.1227 43.8173 10.4105 44.6527 11.2433C45.4881 12.0761 45.7767 13.0787 45.8952 13.9574C46.0004 14.7367 46.0002 15.6817 46 16.654L46 20.2787C46 20.7602 46.0001 21.2296 45.9727 21.6286C45.9429 22.0651 45.8728 22.5827 45.6498 23.1193C45.1829 24.2429 44.2874 25.1356 43.1603 25.601C42.622 25.8233 42.1028 25.8932 41.665 25.923C41.2646 25.9502 40.794 25.9501 40.3109 25.9501L40.25 25.9501C39.6827 25.9501 39.3724 25.9513 39.1481 25.9666L39.1187 25.9687L39.1165 25.998C39.1012 26.2217 39.1 26.531 39.1 27.0965L39.1 35.2462C39.1002 36.2185 39.1004 37.1635 38.9953 37.9428C38.8768 38.8215 38.5881 39.8241 37.7527 40.6569C36.9173 41.4897 35.9115 41.7775 35.0302 41.8956C34.2484 42.0004 33.3005 42.0002 32.3251 42H13.6749C12.6995 42.0002 11.7516 42.0004 10.9698 41.8956C10.0885 41.7775 9.08272 41.4897 8.24733 40.6569C7.41193 39.8241 7.12324 38.8215 7.00474 37.9428C6.89963 37.1635 6.89981 36.2185 6.90001 35.2462L6.90002 27.0965C6.90002 26.531 6.89878 26.2217 6.88347 25.998L6.88132 25.9687L6.85192 25.9666C6.62761 25.9513 6.31733 25.9501 5.75002 25.9501L5.68912 25.9501C5.20602 25.9501 4.73539 25.9502 4.335 25.923C3.89715 25.8932 3.37798 25.8233 2.83968 25.601C1.71256 25.1356 0.817058 24.2429 0.350186 23.1193C0.127216 22.5827 0.057127 22.0651 0.0272522 21.6286C-6.62061e-05 21.2295 -1.93201e-05 20.7603 2.89357e-05 20.2787L1.63234e-05 16.654C-0.000175329 15.6817 -0.000361499 14.7367 0.104749 13.9574C0.223245 13.0787 0.511945 12.0761 1.34734 11.2433C2.18273 10.4105 3.18847 10.1227 4.06983 10.0046C4.47365 9.95048 4.92178 9.92437 5.39512 9.91179C4.88436 8.96584 4.60003 7.89009 4.60003 6.76465V6.34711C4.60003 2.01816 8.8543 -1.03861 12.9739 0.330325C16.603 1.53627 19.9007 3.56797 22.6057 6.26455L23 6.65765L23.3943 6.26455C26.0993 3.56797 29.397 1.53627 33.0261 0.330325C37.1457 -1.03861 41.4 2.01816 41.4 6.34711V6.76465C41.4 7.89009 41.1156 8.96583 40.6049 9.91179ZM11.5193 4.68068C10.3783 4.30154 9.20002 5.14815 9.20002 6.34711V6.76465C9.20002 7.65027 9.76849 8.43653 10.6113 8.71659L14.1733 9.90022H19.7473L19.353 9.50711C17.153 7.31393 14.4709 5.6615 11.5193 4.68068ZM13.8537 14.4859C13.8182 14.4867 13.7826 14.4867 13.747 14.4859H6.90002C5.75077 14.4859 5.12021 14.4908 4.68277 14.5494L4.66602 14.5517L4.66372 14.5684C4.60491 15.0045 4.60003 15.6331 4.60003 16.7787V20.218C4.60003 20.7835 4.60127 21.0929 4.61658 21.3165L4.61873 21.3458L4.64813 21.3479C4.87243 21.3632 5.18272 21.3644 5.75002 21.3644L5.8109 21.3644C6.12286 21.3644 6.42975 21.3643 6.71574 21.3717C6.77653 21.3669 6.83799 21.3644 6.90002 21.3644H39.1C39.162 21.3644 39.2235 21.3669 39.2843 21.3717C39.5702 21.3643 39.877 21.3644 40.189 21.3644L40.25 21.3644C40.8173 21.3644 41.1276 21.3632 41.3519 21.3479L41.3813 21.3458L41.3834 21.3165C41.3987 21.0929 41.4 20.7835 41.4 20.218V16.7787C41.4 15.6331 41.3951 15.0045 41.3363 14.5684L41.334 14.5517L41.3172 14.5494C40.8798 14.4908 40.2492 14.4859 39.1 14.4859H32.253C32.2174 14.4867 32.1818 14.4867 32.1463 14.4859H13.8537ZM26.2527 9.90022L26.647 9.50711C28.847 7.31393 31.5291 5.6615 34.4807 4.68068C35.6217 4.30154 36.8 5.14815 36.8 6.34711V6.76465C36.8 7.65027 36.2315 8.43653 35.3887 8.71659L31.8267 9.90022H26.2527ZM11.4868 25.9501C11.5001 26.2856 11.5001 26.6568 11.5 27.0358L11.5 35.1214C11.5 36.2671 11.5049 36.8957 11.5637 37.3318L11.566 37.3485L11.5828 37.3508C12.0202 37.4094 12.6508 37.4143 13.8 37.4143H32.2C33.3492 37.4143 33.9798 37.4094 34.4172 37.3508L34.434 37.3485L34.4363 37.3318C34.4951 36.8957 34.5 36.2671 34.5 35.1214L34.5 27.0358C34.4999 26.6569 34.4999 26.2856 34.5132 25.9501H11.4868Z" fill="white"/>
</svg>
