<svg width="38" height="53" viewBox="0 0 38 53" fill="none" xmlns="http://www.w3.org/2000/svg">
<path fill-rule="evenodd" clip-rule="evenodd" d="M27.1875 9.28872L38 4.93859L36.036 0L25.2235 4.35013C25.144 4.38213 25.0618 4.41469 24.9775 4.44811C24.0643 4.81006 22.8989 5.27196 22.0579 6.20908C21.2169 7.1462 20.8789 8.35936 20.6141 9.31001C20.5897 9.39776 20.5659 9.48328 20.5423 9.56614L18.7809 15.7668H3.39961C2.69735 15.7668 2.34622 15.7668 2.05577 15.8335C1.06554 16.0609 0.292305 16.8386 0.0662942 17.8346C0 18.1267 0 18.4799 0 19.1862V21.0859C0 23.5561 0 24.7913 0.135726 25.8282C1.07297 32.9887 6.67498 38.6232 13.7941 39.5659C14.3654 39.6416 14.9971 39.6753 15.8649 39.6903V47.681H10.5766C9.11625 47.681 7.93243 48.8717 7.93243 50.3405C7.93243 51.8093 9.11625 53 10.5766 53H26.4414C27.9017 53 29.0856 51.8093 29.0856 50.3405C29.0856 48.8717 27.9017 47.681 26.4414 47.681H21.1531V39.6903C22.0208 39.6753 22.6526 39.6416 23.2239 39.5659C30.343 38.6232 35.945 32.9887 36.8823 25.8282C37.018 24.7913 37.018 23.5561 37.018 21.0859V19.1862C37.018 18.4799 37.018 18.1267 36.9517 17.8346C36.7257 16.8386 35.9524 16.0609 34.9622 15.8335C34.6718 15.7668 34.3206 15.7668 33.6184 15.7668H24.2808L25.6271 11.0274C25.8144 10.3681 25.9111 10.036 25.9994 9.80385L26.004 9.79186L26.0154 9.78605C26.236 9.67405 26.5546 9.54337 27.1875 9.28872ZM17.27 21.0859L15.9666 25.6743C15.5654 27.0866 16.3785 28.5586 17.7826 28.9621C19.1867 29.3656 20.6502 28.5478 21.0514 27.1355L22.7699 21.0859H31.7297C31.7297 23.7252 31.7183 24.5298 31.6392 25.1339C31.0144 29.9076 27.2797 33.664 22.5337 34.2924C21.933 34.372 21.1331 34.3834 18.509 34.3834C15.8849 34.3834 15.085 34.372 14.4843 34.2924C9.73827 33.664 6.0036 29.9076 5.37877 25.1339C5.29969 24.5298 5.28828 23.7252 5.28828 21.0859H17.27Z" fill="#D9643A"/>
</svg>
