<svg width="48" height="36" viewBox="0 0 48 36" fill="none" xmlns="http://www.w3.org/2000/svg">
<path d="M33.3333 9.42858H39.1667C42.3867 9.42858 45 11.6679 45 14.4279V19.4293C45 22.1893 42.3867 24.4286 39.1667 24.4286H33.3333M5.527 3.00001H30.8063C31.1373 2.99916 31.4651 3.05819 31.7712 3.17371C32.0773 3.28923 32.3556 3.45899 32.5903 3.6733C32.8249 3.8876 33.0113 4.14226 33.1388 4.42271C33.2663 4.70317 33.3324 5.00395 33.3333 5.30787V23.7686C33.3333 28.8686 28.8067 33 23.223 33H13.1103C7.52667 33 3 28.8664 3 23.7686V5.30787C3.00092 5.00395 3.06701 4.70317 3.1945 4.42271C3.32199 4.14226 3.50838 3.8876 3.74304 3.6733C3.97769 3.45899 4.25601 3.28923 4.5621 3.17371C4.8682 3.05819 5.19607 2.99916 5.527 3.00001Z" stroke="white" stroke-width="5" stroke-linecap="round" stroke-linejoin="round"/>
</svg>
