<svg width="33" height="34" viewBox="0 0 33 34" fill="none" xmlns="http://www.w3.org/2000/svg">
<path d="M16.5 31L3.02289 14.4156C2.40979 13.6616 2.10233 13.2846 2.02132 12.8315C1.94031 12.3784 2.09496 11.9198 2.40427 11.0045L3.77408 6.95719C4.58417 4.56469 4.98922 3.36844 5.95398 2.68512C6.91873 2.00181 8.20016 2 10.7612 2H22.2388C24.7998 2 26.0813 2 27.0442 2.68512C28.0108 3.36844 28.4158 4.56469 29.2259 6.95719L30.5957 11.0045C30.905 11.9198 31.0597 12.3766 30.9787 12.8315C30.8958 13.2846 30.5902 13.6616 29.9771 14.4156L16.5 31ZM16.5 31L22.944 11.0625M16.5 31L10.056 11.0625M22.944 11.0625L30.3085 12.875M22.944 11.0625L20.1823 3.8125M22.944 11.0625H10.056M10.056 11.0625L12.8177 3.8125M10.056 11.0625L2.69149 12.875" stroke="white" stroke-width="3" stroke-linecap="round"/>
</svg>
