<svg width="37" height="37" viewBox="0 0 37 37" fill="none" xmlns="http://www.w3.org/2000/svg">
<path d="M12.58 16.5575L16.5575 12.5337L13.9675 9.8975L11.9325 11.9325L9.3425 9.3425L11.3313 7.3075L9.25 5.22625L5.22625 9.25L12.58 16.5575ZM27.75 31.7737L31.7737 27.75L29.6925 25.6688L27.6575 27.6575L25.0675 25.0675L27.0562 23.0325L24.42 20.4425L20.4425 24.42L27.75 31.7737ZM26.3163 8.18625L28.9062 10.7762L31.4963 8.18625L28.86 5.55L26.3163 8.18625ZM9.7125 35.15H1.85V27.2875L9.94375 19.1938L0 9.25L9.25 0L19.24 9.99L26.2237 2.96C26.5937 2.59 27.01 2.3125 27.4725 2.1275C27.935 1.9425 28.4129 1.85 28.9062 1.85C29.3996 1.85 29.8775 1.9425 30.34 2.1275C30.8025 2.3125 31.2188 2.59 31.5888 2.96L34.04 5.4575C34.41 5.8275 34.6875 6.24375 34.8725 6.70625C35.0575 7.16875 35.15 7.64667 35.15 8.14C35.15 8.63333 35.0575 9.10385 34.8725 9.55155C34.6875 9.99925 34.41 10.4075 34.04 10.7762L27.0562 17.8062L37 27.75L27.75 37L17.8062 27.0562L9.7125 35.15Z" fill="white"/>
</svg>
