<svg width="33" height="36" viewBox="0 0 33 36" fill="none" xmlns="http://www.w3.org/2000/svg">
<path d="M16.9659 3.26929L16.9658 3.2694L16.9729 3.27342L28.4436 9.81675L16.5 16.6183L4.55644 9.8149L16.0271 3.27344L16.0272 3.27355L16.0341 3.26929C16.2006 3.16702 16.3548 3.12298 16.5 3.12298C16.6452 3.12298 16.7994 3.16702 16.9659 3.26929ZM14.8119 1.19643L14.811 1.19693L2.44265 8.22263C2.44254 8.22269 2.44243 8.22276 2.44231 8.22282C1.91534 8.52022 1.49999 8.92684 1.20077 9.4406C0.900504 9.95393 0.75 10.5118 0.75 11.1095V24.8924C0.75 25.4889 0.900504 26.046 1.2006 26.5591C1.49866 27.0732 1.91425 27.48 2.44259 27.7773C2.44269 27.7774 2.4428 27.7775 2.4429 27.7775L14.811 34.8031L14.8119 34.8036C15.3394 35.1004 15.9034 35.25 16.5 35.25C17.0966 35.25 17.6606 35.1004 18.1881 34.8036L18.189 34.8031L30.5573 27.7774C30.5574 27.7773 30.5575 27.7773 30.5576 27.7772C31.0847 27.4798 31.5007 27.0732 31.8012 26.5594L31.8014 26.559C32.1002 26.0458 32.25 25.4888 32.25 24.8924V11.1095C32.25 10.5121 32.1003 9.95449 31.8016 9.44129C31.5023 8.92584 31.086 8.51888 30.5573 8.2226C30.5571 8.22248 30.5569 8.22237 30.5567 8.22225L18.189 1.19693L18.1881 1.19644C17.6606 0.899581 17.0966 0.75 16.5 0.75C15.9034 0.75 15.3394 0.899581 14.8119 1.19643ZM3.1875 11.792L15.2812 18.6931V32.2972L3.65974 25.6567C3.49331 25.5543 3.37796 25.4369 3.30306 25.3075C3.22548 25.1735 3.1875 25.0321 3.1875 24.879V11.792ZM29.3381 25.6569L17.7188 32.2972V18.6931L29.8125 11.792V24.879C29.8125 25.0319 29.7746 25.1732 29.6972 25.3071C29.6224 25.4351 29.5065 25.5529 29.3381 25.6569Z" fill="white" stroke="white" stroke-width="0.5"/>
</svg>
