<svg width="36" height="36" viewBox="0 0 36 36" fill="none" xmlns="http://www.w3.org/2000/svg">
<path d="M5.59242 34.3248V28.5857C5.59242 26.531 5.05408 25.4624 3.9968 23.676C2.70789 21.4937 2.01913 19.0094 2.00039 16.475C1.98165 13.9406 2.6336 11.4463 3.89009 9.24526C5.14658 7.04419 6.9629 5.21462 9.15479 3.94217C11.3467 2.66972 13.8361 1.99967 16.3706 2C20.1812 2.00043 23.8356 3.51414 26.5304 6.20831C29.2251 8.90248 30.7397 12.5566 30.7409 16.3671C30.7409 17.3048 30.7409 17.7736 30.7797 18.0355C30.8735 18.6628 31.1677 19.2027 31.4539 19.7621L34.3331 25.346L32.0698 26.4776C31.4151 26.8042 31.0869 26.9675 30.859 27.2698C30.631 27.5721 30.5663 27.9148 30.4386 28.5954L30.4257 28.6633C30.1299 30.2282 29.8049 31.9548 28.8899 33.0444C28.5666 33.4276 28.1656 33.7396 27.7146 33.9611C26.9693 34.3248 26.0527 34.3248 24.2194 34.3248C23.3707 34.3248 22.5203 34.3442 21.6716 34.3248C19.6621 34.2747 18.1667 32.5837 18.1667 30.6227" stroke="white" stroke-width="3" stroke-linecap="round" stroke-linejoin="round"/>
<path d="M22.0272 15.7931C21.3385 15.7931 20.7096 15.5312 20.2327 15.1028M22.0272 15.7931C22.0272 17.6457 20.9537 19.4046 18.8877 19.4046C16.8216 19.4046 15.7481 21.1636 15.7481 23.0162M22.0272 15.7931C25.503 15.7931 25.503 10.3757 22.0272 10.3757C21.7103 10.3768 21.4102 10.428 21.1267 10.5293C21.2965 6.49089 15.4749 5.39481 14.1557 9.17776M14.1557 9.17776C15.1176 9.82603 15.7481 10.9286 15.7481 12.1799M14.1557 9.17776C11.1617 7.15695 7.17184 10.7831 9.06978 14.0164C5.88499 14.4933 6.22448 19.4046 9.46909 19.4046C9.9017 19.4045 10.3279 19.2997 10.7113 19.0993C11.0946 18.8989 11.4239 18.6087 11.671 18.2536" stroke="white" stroke-width="3" stroke-linecap="round" stroke-linejoin="round"/>
</svg>
