<svg width="58" height="49" viewBox="0 0 58 49" fill="none" xmlns="http://www.w3.org/2000/svg">
<path d="M56.3861 21.872L43.4546 2.15789C43.0195 1.49425 42.43 0.950062 41.7383 0.573624C41.0466 0.197185 40.2742 0.000146522 39.4896 0H17.6964C16.9118 0.000146522 16.1393 0.197185 15.4476 0.573624C14.756 0.950062 14.1664 1.49425 13.7314 2.15789L0.799832 21.872C0.422073 22.4481 0.170242 23.1 0.0613157 23.7834C-0.0476104 24.4669 -0.0110997 25.1662 0.168387 25.8341L5.27475 44.8677C5.54967 45.8927 6.14854 46.7974 6.97911 47.4425C7.80969 48.0876 8.8259 48.4372 9.8712 48.4375H16.2023C16.8282 48.4375 17.4479 48.3122 18.0261 48.0688C18.6043 47.8254 19.1296 47.4686 19.5721 47.0188C20.0147 46.569 20.3657 46.035 20.6052 45.4474C20.8447 44.8597 20.968 44.2298 20.968 43.5938V40.6875H36.218V43.5938C36.218 44.8784 36.72 46.1104 37.6138 47.0188C38.5075 47.9272 39.7197 48.4375 40.9836 48.4375H47.3147C48.36 48.4372 49.3762 48.0876 50.2068 47.4425C51.0374 46.7974 51.6362 45.8927 51.9112 44.8677L57.0175 25.8341C57.197 25.1662 57.2335 24.4669 57.1246 23.7834C57.0157 23.1 56.7638 22.4481 56.3861 21.872ZM18.1086 34.875V10.3269L20.968 12.1433V26.1562C20.968 26.927 21.2692 27.6663 21.8054 28.2113C22.3417 28.7563 23.069 29.0625 23.8273 29.0625C24.5857 29.0625 25.313 28.7563 25.8492 28.2113C26.3855 27.6663 26.6867 26.927 26.6867 26.1562V15.7785L27.0775 16.0207C27.5319 16.3094 28.0571 16.4625 28.593 16.4625C29.1289 16.4625 29.654 16.3094 30.1084 16.0207L30.4992 15.7785V24.2188C30.4992 24.9895 30.8005 25.7288 31.3367 26.2738C31.8729 26.8188 32.6002 27.125 33.3586 27.125C34.1169 27.125 34.8442 26.8188 35.3805 26.2738C35.9167 25.7288 36.218 24.9895 36.218 24.2188V12.1433L39.0773 10.3269V34.875H18.1086ZM28.593 10.1355L21.7924 5.8125H35.3935L28.593 10.1355ZM10.6003 42.625L5.79897 24.7298L12.3898 14.6814V35.8438C12.3903 36.7858 12.6611 37.7073 13.1689 38.4953C13.6768 39.2834 14.3997 39.9038 15.2492 40.2806V42.625H10.6003ZM46.5808 42.625H41.9367V40.2806C42.7862 39.9038 43.5091 39.2834 44.017 38.4953C44.5249 37.7073 44.7956 36.7858 44.7961 35.8438V14.6814L51.3869 24.7298L46.5808 42.625Z" fill="white"/>
</svg>
